<svg width="24" height="24" viewBox="0 0 24 24" fill="none" xmlns="http://www.w3.org/2000/svg">
<path d="M5.63596 12.707L7.46396 14.536L8.87996 13.12L7.04996 11.293L8.46396 9.879L10.293 11.707L11.707 10.293L9.87996 8.464L11.294 7.05L13.12 8.88L14.535 7.465L12.706 5.637L15.535 2.809C15.7225 2.62153 15.9768 2.51621 16.242 2.51621C16.5071 2.51621 16.7614 2.62153 16.949 2.809L21.191 7.051C21.3784 7.23853 21.4837 7.49284 21.4837 7.758C21.4837 8.02316 21.3784 8.27747 21.191 8.465L8.46396 21.192C8.27643 21.3795 8.02212 21.4848 7.75696 21.4848C7.49179 21.4848 7.23749 21.3795 7.04996 21.192L2.80796 16.95C2.62049 16.7625 2.51517 16.5082 2.51517 16.243C2.51517 15.9778 2.62049 15.7235 2.80796 15.536L5.63596 12.707ZM14.121 18.363L18.364 14.121L21 16.757V21H16.758L14.121 18.363ZM5.63596 9.878L2.80696 7.05C2.71398 6.95713 2.64022 6.84684 2.5899 6.72544C2.53957 6.60404 2.51367 6.47392 2.51367 6.3425C2.51367 6.21108 2.53957 6.08096 2.5899 5.95956C2.64022 5.83816 2.71398 5.72787 2.80696 5.635L5.63596 2.807C5.82349 2.61953 6.07779 2.51421 6.34296 2.51421C6.60812 2.51421 6.86243 2.61953 7.04996 2.807L9.87996 5.635L5.63596 9.878Z" fill="#20116F"/>
</svg>
