<svg width="34" height="34" viewBox="0 0 34 34" fill="none" xmlns="http://www.w3.org/2000/svg">
<rect x="0.5" y="0.5" width="33" height="33" rx="9.5" fill="#F2F2F2" stroke="#F2F2F2"/>
<path d="M24.5 19.7025V24.5067C24.4998 24.726 24.4125 24.9363 24.2574 25.0913C24.1022 25.2463 23.8918 25.3334 23.6725 25.3334H10.3275C10.2181 25.3326 10.1099 25.3103 10.0091 25.2677C9.90825 25.2251 9.81681 25.1631 9.73997 25.0852C9.66313 25.0072 9.60239 24.9149 9.56122 24.8135C9.52005 24.7121 9.49925 24.6036 9.50002 24.4942V14.5H14.5C14.721 14.5 14.933 14.4122 15.0893 14.2559C15.2456 14.0997 15.3334 13.8877 15.3334 13.6667V8.66669H23.6684C24.1275 8.66669 24.5 9.04585 24.5 9.49335V12.6309L17.0009 20.1309L16.9959 23.6625L20.5342 23.6675L24.5 19.7025ZM25.1484 14.34L26.3267 15.5184L19.845 22L18.665 21.9984L18.6667 20.8217L25.1484 14.34ZM9.50002 12.8334L13.6667 8.66919V12.8334H9.50002Z" fill="#2F2F2F"/>
</svg>
