<svg width="45" height="45" viewBox="0 0 45 45" fill="none" xmlns="http://www.w3.org/2000/svg">
<circle cx="22.5" cy="22.5" r="22.5" fill="#F74430"/>
<path d="M36.2105 10.5263C16.2105 10.5263 13.5439 29.193 12.2105 37.193H14.8745C15.7625 32.749 17.9852 30.305 21.5439 29.8596C26.8772 29.193 30.8772 24.5263 32.2105 20.5263L30.2105 19.193L31.5439 17.8596C32.8772 16.5263 34.2159 14.5263 36.2105 10.5263Z" fill="#FF5D4A"/>
<path d="M34.2105 9.52631C14.2105 9.52631 11.5439 28.193 10.2105 36.193H12.8745C13.7625 31.749 15.9852 29.305 19.5439 28.8596C24.8772 28.193 28.8772 23.5263 30.2105 19.5263L28.2105 18.193L29.5439 16.8596C30.8772 15.5263 32.2159 13.5263 34.2105 9.52631Z" fill="white"/>
</svg>
