<svg width="34" height="34" viewBox="0 0 34 34" fill="none" xmlns="http://www.w3.org/2000/svg">
<rect x="0.5" y="0.5" width="33" height="33" rx="9.5" fill="#F2F2F2" stroke="#F2F2F2"/>
<path d="M17 27C11.477 27 7 22.523 7 17C7 11.477 11.477 7 17 7C22.523 7 27 11.477 27 17C27 22.523 22.523 27 17 27ZM22.051 23.204L21.189 19.757C21.1348 19.5408 21.01 19.3488 20.8342 19.2117C20.6585 19.0745 20.4419 19 20.219 19H13.781C13.5581 19 13.3415 19.0745 13.1658 19.2117C12.99 19.3488 12.8652 19.5408 12.811 19.757L11.949 23.204C13.3747 24.3681 15.1594 25.0028 17 25C18.8406 25.0028 20.6253 24.3681 22.051 23.204V23.204ZM15 17H19V15.5L17.962 11.865C17.9026 11.6557 17.7765 11.4714 17.6029 11.3402C17.4293 11.209 17.2176 11.138 17 11.138C16.7824 11.138 16.5707 11.209 16.3971 11.3402C16.2235 11.4714 16.0974 11.6557 16.038 11.865L15 15.5V17Z" fill="#2F2F2F"/>
<rect x="6.29289" y="26.0919" width="28" height="3" transform="rotate(-45 6.29289 26.0919)" fill="#2F2F2F" stroke="#F2F2F2"/>
</svg>
